# This file uses centimeters as units for non-parametric coordinates.

mtllib Slope road 2.mtl
g default
v -13.884123 1.767609 8.154823
v -5.138854 1.767609 7.430261
v -12.363622 8.843344 7.100804
v -8.791092 8.829964 7.317725
v -12.363622 8.843344 -11.082492
v -8.791092 8.829964 -11.082492
v -12.363622 1.767609 -10.684042
v -8.791092 1.767609 -10.684042
v 60.780337 1.767609 -10.684042
v 60.780337 1.767609 7.430261
v 60.780337 4.671514 -11.082492
v 60.780337 4.671514 7.317725
v -93.823997 1.767609 -10.684042
v -93.823997 1.767609 7.988663
v -93.823997 12.049029 7.100804
v -93.823997 12.049029 -11.082492
v -13.884110 1.767609 13.196481
v -4.648743 1.767609 10.202767
v -8.791092 10.019591 12.245937
v -12.363627 10.019591 12.245937
v -13.884106 1.767609 14.958046
v -4.648743 1.767609 14.796540
v -8.791092 10.683729 16.016017
v -12.363622 10.683729 14.771630
v -14.772482 1.767609 17.257693
v -6.487293 1.767609 20.074883
v -10.299979 11.428866 20.347927
v -13.637356 11.428866 18.068804
v -16.067485 1.767609 18.850608
v -9.953192 1.767609 24.233168
v -13.144421 12.631709 23.760595
v -15.494111 12.631709 20.352692
v -18.206565 1.767609 19.798185
v -15.180254 1.767609 26.633630
v -17.434230 14.641955 25.730638
v -19.705680 14.533676 21.711302
v -20.894576 1.767609 19.788380
v -21.251705 1.767609 26.616505
v -22.417030 15.959825 25.716584
v -24.013075 15.959825 21.697253
v -36.614294 1.767609 21.690294
v -37.375366 -0.302828 26.754408
v -36.616264 19.603679 25.709641
v -36.614294 19.603679 21.690294
v -42.769797 1.767609 21.981217
v -41.131331 -0.302828 27.705235
v -39.698761 20.386665 26.489968
v -41.333610 20.386665 22.826461
v -47.610890 1.767609 24.681458
v -46.423116 -0.302828 30.648558
v -44.041692 21.027991 28.905535
v -46.174701 21.027991 25.526691
v -50.546755 0.626563 28.424426
v -47.187760 -0.302828 31.996889
v -46.710451 21.728616 30.949281
v -49.626278 21.728616 28.424426
v -65.826009 1.767609 47.132691
v -62.910145 1.767609 49.657547
v -62.910145 21.728616 49.657547
v -65.826009 21.728616 47.132691
v -30.451295 1.767609 45.139336
v -30.451295 21.728616 45.139336
v -46.651037 21.728616 63.847604
v -46.651037 1.767609 63.847604
v -54.361504 1.767609 24.324147
v -54.361504 21.728616 24.324147
v -70.561235 1.767609 43.032404
v -70.561235 21.728616 43.032404
v -86.438231 1.767609 70.275182
v -83.522389 1.767609 72.800038
v -83.522389 21.728616 72.800038
v -86.438231 21.728616 70.275182
v -67.263288 1.767609 86.990088
v -67.263288 21.728616 86.990088
v -91.173494 21.728616 66.174902
v -91.173494 1.767609 66.174902
v -24.479482 1.767609 50.310417
v -24.479482 21.728616 50.310417
v -40.679211 21.728616 69.018685
v -40.679211 1.767609 69.018685
v -61.291465 21.728616 92.161161
v -61.291465 1.767609 92.161161
v -117.198098 1.767609 105.798192
v -117.198098 21.728616 105.798192
v -121.933294 21.728616 101.697890
v -121.933294 1.767609 101.697890
v -12.635580 1.767609 60.566198
v -12.635580 21.728616 60.566198
v -28.907543 21.728616 79.356687
v -28.907543 1.767609 79.356687
v -49.592035 21.728616 102.581450
v -49.592035 1.767609 102.581450
v -94.158109 1.767609 79.190507
v -91.259595 1.767609 81.700318
v -91.259595 21.728616 81.700318
v -94.158109 21.728616 79.190507
v -75.000487 1.767609 95.890346
v -75.000487 21.728616 95.890346
v -69.073239 1.767609 101.022102
v -69.073239 21.728616 101.022102
v -57.435734 1.767609 111.388014
v -57.435734 21.728616 111.388014
v -67.288680 1.767609 13.130333
v -67.288680 21.728616 13.130333
v -83.409541 1.767609 31.748819
v -83.409541 21.728616 31.748819
v -104.021822 1.767609 54.891319
v -104.021822 21.728616 54.891319
v -134.860493 1.767609 90.504106
v -134.860493 21.728616 90.504106
v -21.405467 3.237628 7.985088
v -19.884969 9.159983 6.931070
v -21.418612 3.164285 13.009121
v -19.898127 10.474352 12.058576
v -21.170959 2.979557 13.425177
v -19.650474 11.143212 13.238759
v -21.151580 2.837212 13.336129
v -19.732581 12.113558 14.147240
v -20.309611 2.811104 12.820803
v -19.736243 12.759317 14.322886
v -19.449600 2.838532 12.468329
v -22.651840 13.941724 14.507502
v -20.977050 2.531831 12.176621
v -27.320545 15.532287 14.018259
v -37.320680 2.092518 14.070091
v -37.320680 19.184866 14.070091
v -45.107751 2.164428 14.835682
v -43.671561 20.334834 15.680927
v -52.223046 2.273832 18.690351
v -50.786849 21.534215 19.535590
v -56.076935 1.060248 23.133922
v -55.156466 22.162301 23.133922
v -47.187760 -0.302828 31.996889
v -46.710451 21.728616 30.949281
v -30.451295 21.728616 45.139336
v -30.451295 1.767609 45.139336
v -24.479482 21.728616 50.310417
v -24.479482 1.767609 50.310417
v -12.635580 21.728616 60.566198
v -12.635580 1.767609 60.566198
vt 0.375000 0.000000
vt 0.625000 0.000000
vt 0.375000 0.250000
vt 0.625000 0.250000
vt 0.375000 0.500000
vt 0.625000 0.500000
vt 0.375000 0.750000
vt 0.625000 0.750000
vt 0.375000 1.000000
vt 0.625000 1.000000
vt 0.875000 0.000000
vt 0.875000 0.250000
vt 0.125000 0.000000
vt 0.125000 0.250000
vt 0.625000 0.000000
vt 0.875000 0.000000
vt 0.875000 0.250000
vt 0.625000 0.250000
vt 0.125000 0.000000
vt 0.375000 0.000000
vt 0.375000 0.250000
vt 0.125000 0.250000
vt 0.375000 0.000000
vt 0.625000 0.000000
vt 0.625000 0.250000
vt 0.375000 0.250000
vt 0.375000 0.000000
vt 0.625000 0.000000
vt 0.625000 0.250000
vt 0.375000 0.250000
vt 0.375000 0.000000
vt 0.625000 0.000000
vt 0.625000 0.250000
vt 0.375000 0.250000
vt 0.375000 0.000000
vt 0.625000 0.000000
vt 0.625000 0.250000
vt 0.375000 0.250000
vt 0.375000 0.000000
vt 0.625000 0.000000
vt 0.625000 0.250000
vt 0.375000 0.250000
vt 0.375000 0.000000
vt 0.625000 0.000000
vt 0.625000 0.250000
vt 0.375000 0.250000
vt 0.375000 0.000000
vt 0.625000 0.000000
vt 0.625000 0.250000
vt 0.375000 0.250000
vt 0.375000 0.000000
vt 0.625000 0.000000
vt 0.625000 0.250000
vt 0.375000 0.250000
vt 0.375000 0.000000
vt 0.625000 0.000000
vt 0.625000 0.250000
vt 0.375000 0.250000
vt 0.375000 0.000000
vt 0.625000 0.000000
vt 0.625000 0.250000
vt 0.375000 0.250000
vt 0.375000 0.000000
vt 0.625000 0.000000
vt 0.625000 0.250000
vt 0.375000 0.250000
vt 0.625000 0.000000
vt 0.625000 0.250000
vt 0.625000 0.250000
vt 0.625000 0.000000
vt 0.375000 0.250000
vt 0.375000 0.000000
vt 0.375000 0.000000
vt 0.375000 0.250000
vt 0.375000 0.000000
vt 0.625000 0.000000
vt 0.625000 0.250000
vt 0.375000 0.250000
vt 0.625000 0.000000
vt 0.625000 0.250000
vt 0.375000 0.250000
vt 0.375000 0.000000
vt 0.625000 0.000000
vt 0.625000 0.250000
vt 0.625000 0.250000
vt 0.625000 0.000000
vt 0.625000 0.250000
vt 0.625000 0.000000
vt 0.375000 0.000000
vt 0.375000 0.250000
vt 0.375000 0.250000
vt 0.375000 0.000000
vt 0.625000 0.000000
vt 0.625000 0.250000
vt 0.625000 0.250000
vt 0.625000 0.000000
vt 0.625000 0.250000
vt 0.625000 0.000000
vt 0.375000 0.000000
vt 0.625000 0.000000
vt 0.625000 0.250000
vt 0.375000 0.250000
vt 0.625000 0.000000
vt 0.625000 0.250000
vt 0.625000 0.000000
vt 0.625000 0.250000
vt 0.625000 0.000000
vt 0.625000 0.250000
vt 0.375000 0.250000
vt 0.375000 0.000000
vt 0.375000 0.000000
vt 0.375000 0.250000
vt 0.375000 0.000000
vt 0.375000 0.250000
vt 0.375000 0.000000
vt 0.375000 0.250000
vt 0.375000 0.250000
vt 0.375000 0.000000
vt 0.375000 0.000000
vt 0.375000 0.250000
vt 0.375000 0.000000
vt 0.375000 0.250000
vt 0.375000 0.000000
vt 0.375000 0.250000
vt 0.375000 0.000000
vt 0.375000 0.250000
vt 0.375000 0.000000
vt 0.375000 0.250000
vt 0.375000 0.000000
vt 0.375000 0.250000
vt 0.375000 0.000000
vt 0.375000 0.250000
vt 0.375000 0.000000
vt 0.375000 0.250000
vt 0.375000 0.000000
vt 0.375000 0.250000
vt 0.375000 0.000000
vt 0.375000 0.250000
vt 0.625000 0.000000
vt 0.625000 0.250000
vt 0.625000 0.250000
vt 0.625000 0.000000
vt 0.625000 0.250000
vt 0.625000 0.000000
vt 0.625000 0.250000
vt 0.625000 0.000000
vn -0.654597 0.000000 0.755978
vn -0.657098 0.000000 0.753805
vn -0.657098 0.000000 0.753805
vn -0.654597 0.000000 0.755978
vn 0.037919 0.999245 -0.008413
vn 0.056401 0.998403 -0.003213
vn 0.056959 0.998377 0.000000
vn 0.037821 0.999285 0.000000
vn -0.000876 -0.046214 -0.998931
vn -0.002222 -0.078056 -0.996947
vn -0.002228 -0.078118 -0.996942
vn -0.000875 -0.046223 -0.998931
vn 0.000000 -1.000000 0.000000
vn 0.000000 -1.000000 -0.000000
vn 0.000000 -1.000000 -0.000000
vn -0.004135 -0.999991 -0.000164
vn 1.000000 -0.000002 0.000000
vn 1.000000 -0.000002 0.000000
vn 1.000000 -0.000002 0.000000
vn 1.000000 -0.000002 0.000000
vn -1.000000 0.000000 0.000000
vn -1.000000 0.000000 0.000000
vn -1.000000 0.000000 0.000000
vn -1.000000 0.000000 0.000000
vn 0.000000 -1.000000 -0.000000
vn 0.000000 -1.000000 -0.000000
vn -0.002382 -0.079705 -0.996816
vn -0.002382 -0.079705 -0.996816
vn 0.059666 0.998218 0.000000
vn 0.059666 0.998218 0.000000
vn 0.000701 0.022834 0.999739
vn 0.000701 0.022834 0.999739
vn 0.000701 0.022834 0.999739
vn 0.000701 0.022834 0.999739
vn 0.000000 -1.000000 0.000000
vn 0.000000 -1.000000 0.000000
vn 0.001183 0.111082 0.993811
vn 0.001183 0.111082 0.993811
vn 0.001183 0.111082 0.993811
vn 0.001183 0.111082 0.993811
vn 0.039322 0.999227 0.000000
vn 0.039322 0.999227 0.000000
vn -0.000902 -0.045864 -0.998947
vn -0.000902 -0.045864 -0.998947
vn 0.000000 -1.000000 0.000000
vn -0.077301 -0.996980 -0.007424
vn 0.877375 0.462609 -0.127305
vn 0.877375 0.462609 -0.127305
vn 0.891769 0.447733 -0.065447
vn 0.888195 0.452007 -0.082458
vn 0.049844 0.967250 -0.248882
vn 0.019186 0.975288 -0.220101
vn -0.975137 0.219648 -0.029379
vn -0.975137 0.219648 -0.029379
vn -0.975717 0.217696 0.024188
vn -0.975710 0.217676 0.024650
vn 0.000000 -1.000000 -0.000000
vn -0.024299 -0.999588 -0.015294
vn 0.903412 0.390796 0.176425
vn 0.905939 0.404900 0.123816
vn 0.107808 0.961428 -0.253050
vn 0.065650 0.981806 -0.178175
vn -0.981325 0.191978 -0.012051
vn -0.981233 0.190796 -0.027900
vn 0.000000 -1.000000 -0.000000
vn -0.016979 -0.999759 -0.013907
vn 0.820844 0.304498 0.483214
vn 0.845942 0.322372 0.424805
vn 0.211532 0.944565 -0.251099
vn 0.155090 0.968880 -0.192924
vn 0.216478 -0.123829 0.968403
vn 0.312194 -0.135915 0.940246
vn 0.000000 -1.000000 -0.000000
vn -0.009981 -0.999895 -0.010522
vn 0.550041 0.191087 0.812982
vn 0.622735 0.216677 0.751833
vn 0.321080 0.916588 -0.238275
vn 0.289045 0.931386 -0.221301
vn 0.514879 0.169880 -0.840262
vn 0.205818 0.185457 -0.960856
vn 0.000000 -1.000000 0.000000
vn 0.009296 -0.999585 -0.027262
vn 0.138373 0.094671 0.985845
vn 0.227869 0.112481 0.967173
vn 0.321491 0.926269 -0.196644
vn 0.314672 0.929161 -0.194012
vn 0.171048 0.213944 -0.961754
vn 0.169200 0.216978 -0.961401
vn 0.041417 -0.990758 -0.129160
vn 0.024778 -0.994931 -0.097455
vn 0.006946 0.058596 0.998258
vn 0.006800 0.059303 0.998217
vn 0.292269 0.948742 -0.120282
vn 0.269057 0.959215 -0.086685
vn -0.015028 0.086635 -0.996127
vn -0.053985 0.057234 -0.996900
vn 0.024280 -0.974338 -0.223777
vn 0.016160 -0.991943 -0.125648
vn 0.072085 0.052913 0.995994
vn 0.066622 0.053269 0.996355
vn 0.253276 0.963192 -0.090070
vn 0.243571 0.968646 -0.048964
vn -0.105956 0.040192 -0.993558
vn -0.114070 0.038798 -0.992715
vn -0.113820 -0.940467 -0.320261
vn -0.050779 -0.989276 -0.136948
vn 0.406486 0.025605 0.913298
vn 0.405190 0.025735 0.913870
vn 0.142521 0.988594 -0.048682
vn 0.142578 0.988545 -0.049494
vn -0.339721 0.056571 -0.938823
vn -0.344980 0.057351 -0.936856
vn -0.123413 -0.951232 -0.282714
vn -0.026600 -0.984678 -0.172341
vn 0.560586 0.011664 0.828014
vn 0.567104 0.011146 0.823571
vn 0.129641 0.990358 -0.048822
vn 0.118220 0.989634 -0.081538
vn -0.583761 0.067070 -0.809151
vn -0.581847 0.067233 -0.810515
vn -0.015221 -0.998899 0.044375
vn -0.075494 -0.994878 -0.067220
vn 0.702756 -0.000546 0.711430
vn 0.702756 -0.000546 0.711430
vn 0.024620 0.999641 -0.010588
vn 0.003611 0.999989 -0.003088
vn -0.700107 0.055785 -0.711856
vn -0.700107 0.055785 -0.711856
vn -0.006242 -0.999736 0.022102
vn -0.046934 -0.998780 -0.015356
vn 0.755950 0.000000 0.654629
vn 0.755950 0.000000 0.654629
vn 0.750864 0.000000 0.660457
vn 0.750864 0.000000 0.660457
vn 0.000000 1.000000 0.000000
vn 0.000000 1.000000 0.000000
vn -0.755994 0.000000 -0.654579
vn -0.755994 0.000000 -0.654579
vn -0.750861 0.000000 -0.660460
vn -0.750861 0.000000 -0.660460
vn 0.638685 -0.026445 -0.769013
vn 0.638685 -0.026445 -0.769014
vn 0.642885 -0.019586 -0.765712
vn 0.642702 -0.019886 -0.765858
vn 0.000000 1.000000 -0.000000
vn 0.000000 1.000000 -0.000000
vn -0.656746 0.000000 0.754112
vn -0.656746 0.000000 0.754112
vn 0.006491 -0.998891 0.046634
vn 0.002873 -0.999783 0.020638
vn 0.691045 -0.015491 -0.722645
vn 0.691045 -0.015491 -0.722645
vn 0.665247 -0.004447 -0.746610
vn 0.664362 -0.004075 -0.747400
vn -0.010101 -0.999936 -0.005077
vn -0.021787 -0.999703 -0.010951
vn -0.654607 0.000000 0.755969
vn -0.654607 0.000000 0.755969
vn -0.654605 0.000000 0.755971
vn -0.654605 0.000000 0.755971
vn 0.000000 1.000000 0.000000
vn 0.000000 1.000000 0.000000
vn 0.000000 -1.000000 0.000000
vn 0.000000 -1.000000 -0.000000
vn 0.000000 1.000000 0.000000
vn 0.000000 1.000000 0.000000
vn 0.000000 -1.000000 0.000000
vn 0.746762 0.000000 0.665092
vn 0.746762 0.000000 0.665092
vn 0.000000 1.000000 0.000000
vn 0.000000 1.000000 -0.000000
vn -0.752322 0.000000 -0.658795
vn -0.752322 0.000000 -0.658795
vn 0.000000 -1.000000 0.000000
vn 0.654605 0.000000 -0.755971
vn 0.654605 0.000000 -0.755971
vn 0.000000 1.000000 0.000000
vn 0.000000 1.000000 0.000000
vn 0.000000 -1.000000 0.000000
vn 0.000000 -1.000000 0.000000
vn 0.000000 1.000000 0.000000
vn -0.661606 0.000000 0.749852
vn -0.661606 0.000000 0.749852
vn 0.000000 -1.000000 0.000000
vn 0.755971 0.000000 0.654606
vn 0.755971 0.000000 0.654606
vn 0.755971 0.000000 0.654606
vn 0.755971 0.000000 0.654606
vn 0.000000 1.000000 -0.000000
vn 0.000000 1.000000 0.000000
vn -0.755960 0.000000 -0.654618
vn -0.755960 0.000000 -0.654618
vn 0.000000 -1.000000 0.000000
vn 0.000000 -1.000000 0.000000
vn 0.654605 0.000000 -0.755971
vn 0.654605 0.000000 -0.755971
vn 0.000000 1.000000 0.000000
vn 0.000000 1.000000 0.000000
vn 0.000000 -1.000000 0.000000
vn 0.000000 -1.000000 0.000000
vn 0.000000 1.000000 0.000000
vn -0.665133 0.000000 0.746725
vn -0.665133 0.000000 0.746725
vn 0.000000 -1.000000 0.000000
vn 0.000000 -1.000000 -0.000000
vn 0.000000 -1.000000 0.000000
vn 0.000000 1.000000 0.000000
vn 0.000000 1.000000 0.000000
vn -0.755972 0.000000 -0.654604
vn -0.755972 0.000000 -0.654604
vn -0.755972 0.000000 -0.654604
vn -0.755972 0.000000 -0.654604
vn 0.000000 -1.000000 -0.000000
vn 0.000000 1.000000 0.000000
vn 0.000000 -1.000000 -0.000000
vn 0.000000 1.000000 0.000000
vn 0.000000 -1.000000 0.000000
vn 0.746750 0.000000 0.665105
vn 0.746750 0.000000 0.665105
vn 0.000000 1.000000 0.000000
vn 0.654605 0.000000 -0.755971
vn 0.654605 0.000000 -0.755971
vn 0.000000 -1.000000 0.000000
vn 0.000000 -1.000000 0.000000
vn 0.000000 1.000000 0.000000
vn 0.000000 1.000000 0.000000
vn 0.000000 -1.000000 0.000000
vn 0.000000 1.000000 -0.000000
vn 0.000000 -1.000000 0.000000
vn -0.654604 0.000000 0.755972
vn -0.654604 0.000000 0.755972
vn 0.000000 1.000000 -0.000000
vn 0.003173 -0.160811 -0.986980
vn 0.003173 -0.160811 -0.986980
vn 0.003173 -0.160811 -0.986980
vn 0.003173 -0.160811 -0.986980
vn -0.184480 -0.982737 -0.013957
vn -0.186869 -0.982357 -0.007402
vn 0.055296 0.970373 -0.235198
vn 0.065701 0.962865 -0.261867
vn -0.147537 -0.985542 -0.083309
vn 0.150807 0.932527 -0.328102
vn -0.121613 -0.987287 -0.102341
vn 0.280870 0.903090 -0.324871
vn -0.101467 -0.989697 -0.101022
vn 0.360967 0.897291 -0.254108
vn 0.051061 -0.990459 -0.128000
vn 0.346821 0.911674 -0.220377
vn 0.013484 -0.996874 -0.077844
vn 0.322211 0.925560 -0.198793
vn 0.307652 0.940515 -0.144160
vn 0.001099 -0.997926 -0.064363
vn 0.259587 0.959280 -0.111338
vn -0.022464 -0.998583 -0.048237
vn 0.144082 0.988339 -0.049257
vn 0.030233 -0.993547 -0.109313
vn 0.134015 0.990269 -0.037514
vn 0.115363 -0.975940 -0.185022
vn -0.689729 0.030086 0.723442
vn -0.689729 0.030086 0.723442
vn -0.689729 0.030086 0.723442
vn -0.689729 0.030086 0.723442
vn 0.135508 0.989995 -0.039344
vn 0.000000 0.000000 0.000000
vn 0.000000 0.000000 0.000000
vn 0.000000 0.000000 0.000000
vn 0.000000 0.000000 0.000000
vn 0.000000 0.000000 0.000000
vn 0.000000 0.000000 0.000000
vn 0.000000 0.000000 0.000000
vn 0.000000 0.000000 0.000000
vn 0.000000 0.000000 0.000000
vn 0.000000 0.000000 0.000000
vn 0.000000 0.000000 0.000000
vn 0.000000 0.000000 0.000000
vn 0.000000 0.000000 0.000000
vn 0.000000 0.000000 0.000000
vn 0.000000 0.000000 0.000000
vn 0.000000 0.000000 0.000000
vn 0.000000 0.000000 0.000000
vn 0.000000 0.000000 0.000000
vn 0.000000 0.000000 0.000000
vn 0.000000 0.000000 0.000000
vn 0.000000 0.000000 0.000000
vn 0.000000 0.000000 0.000000
vn 0.000000 0.000000 0.000000
vn 0.000000 0.000000 0.000000
vn 0.000000 0.000000 0.000000
vn 0.000000 0.000000 0.000000
vn 0.000000 0.000000 0.000000
vn 0.000000 0.000000 0.000000
vn 0.000000 0.000000 0.000000
vn 0.000000 0.000000 0.000000
vn 0.000000 0.000000 0.000000
vn 0.000000 0.000000 0.000000
s 1
g pCube6 group1
usemtl lambert2SG
f 93/99/1 94/100/2 95/101/3 96/102/4
s 2
f 3/3/5 4/4/6 6/6/7 5/5/8
s 3
f 5/5/9 6/6/10 8/8/11 7/7/12
s 4
f 7/7/13 8/8/14 2/10/15 1/9/16
s off
f 10/15/17 9/16/18 11/17/19 12/18/20
f 13/19/21 14/20/22 15/21/23 16/22/24
s 4
f 2/2/15 8/11/14 9/16/25 10/15/26
s 3
f 8/11/11 6/12/10 11/17/27 9/16/28
s 2
f 6/12/7 4/4/6 12/18/29 11/17/30
s off
f 4/4/31 2/2/32 10/15/33 12/18/34
s 4
f 7/13/13 1/1/16 14/20/35 13/19/36
s off
f 1/1/37 3/3/38 15/21/39 14/20/40
s 2
f 3/3/5 5/14/8 16/22/41 15/21/42
s 3
f 5/14/9 7/13/12 13/19/43 16/22/44
s 4
f 1/1/16 2/2/15 18/24/45 17/23/46
s 5
f 2/2/47 4/4/48 19/25/49 18/24/50
s 2
f 4/4/6 3/3/5 20/26/51 19/25/52
s 6
f 112/117/53 111/118/54 113/119/55 114/120/56
s 4
f 17/23/46 18/24/45 22/28/57 21/27/58
s 5
f 18/24/50 19/25/49 23/29/59 22/28/60
s 2
f 19/25/52 20/26/51 24/30/61 23/29/62
s 6
f 114/120/56 113/119/55 115/121/63 116/122/64
s 4
f 21/27/58 22/28/57 26/32/65 25/31/66
s 5
f 22/28/60 23/29/59 27/33/67 26/32/68
s 2
f 23/29/62 24/30/61 28/34/69 27/33/70
s 6
f 116/122/64 115/121/63 117/123/71 118/124/72
s 4
f 25/31/66 26/32/65 30/36/73 29/35/74
s 5
f 26/32/68 27/33/67 31/37/75 30/36/76
s 2
f 27/33/70 28/34/69 32/38/77 31/37/78
s 6
f 118/124/72 117/123/71 119/125/79 120/126/80
s 4
f 29/35/74 30/36/73 34/40/81 33/39/82
s 5
f 30/36/76 31/37/75 35/41/83 34/40/84
s 2
f 31/37/78 32/38/77 36/42/85 35/41/86
s 6
f 120/126/80 119/125/79 121/127/87 122/128/88
s 4
f 33/39/82 34/40/81 38/44/89 37/43/90
s 5
f 34/40/84 35/41/83 39/45/91 38/44/92
s 2
f 35/41/86 36/42/85 40/46/93 39/45/94
s 6
f 122/128/88 121/127/87 123/129/95 124/130/96
s 4
f 37/43/90 38/44/89 42/48/97 41/47/98
s 5
f 38/44/92 39/45/91 43/49/99 42/48/100
s 2
f 39/45/94 40/46/93 44/50/101 43/49/102
s 6
f 124/130/96 123/129/95 125/131/103 126/132/104
s 4
f 41/47/98 42/48/97 46/52/105 45/51/106
s 5
f 42/48/100 43/49/99 47/53/107 46/52/108
s 2
f 43/49/102 44/50/101 48/54/109 47/53/110
s 6
f 126/132/104 125/131/103 127/133/111 128/134/112
s 4
f 45/51/106 46/52/105 50/56/113 49/55/114
s 5
f 46/52/108 47/53/107 51/57/115 50/56/116
s 2
f 47/53/110 48/54/109 52/58/117 51/57/118
s 6
f 128/134/112 127/133/111 129/135/119 130/136/120
s 4
f 49/55/114 50/56/113 54/60/121 53/59/122
s 5
f 50/56/116 51/57/115 55/61/123 54/60/124
s 2
f 51/57/118 52/58/117 56/62/125 55/61/126
s 6
f 130/136/120 129/135/119 131/137/127 132/138/128
s 4
f 53/59/122 54/60/121 58/64/129 57/63/130
s 7
f 87/93/131 88/94/132 89/95/133 90/96/134
s 2
f 55/61/126 56/62/125 60/66/135 59/65/136
s 8
f 104/109/137 103/110/138 105/111/139 106/112/140
s 9
f 133/139/141 134/140/142 135/141/143 136/142/144
s 2
f 55/61/126 59/65/136 63/69/145 62/68/146
s 1
f 95/101/3 94/100/2 97/103/147 98/104/148
s 4
f 58/64/129 54/60/121 61/67/149 64/70/150
s 10
f 56/62/151 53/59/152 65/72/153 66/71/154
s 4
f 53/59/122 57/63/130 67/73/155 65/72/156
s 11
f 83/89/157 84/90/158 85/91/159 86/92/160
s 2
f 60/66/135 56/62/125 66/71/161 68/74/162
s 4
f 57/63/130 58/64/129 70/76/163 69/75/164
s 2
f 59/65/136 60/66/135 72/78/165 71/77/166
s 4
f 58/64/129 64/70/150 73/79/167 70/76/163
s 7
f 90/96/134 89/95/133 91/97/168 92/98/169
s 2
f 63/69/145 59/65/136 71/77/166 74/80/170
f 60/66/135 68/74/162 75/81/171 72/78/165
s 8
f 106/112/140 105/111/139 107/113/172 108/114/173
s 4
f 67/73/155 57/63/130 69/75/164 76/82/174
s 9
f 136/142/144 135/141/143 137/143/175 138/144/176
s 2
f 62/68/146 63/69/145 79/85/177 78/84/178
s 4
f 64/70/150 61/67/149 77/83/179 80/86/180
s 2
f 63/69/145 74/80/170 81/87/181 79/85/177
s 1
f 98/104/148 97/103/147 99/105/182 100/106/183
s 4
f 73/79/167 64/70/150 80/86/180 82/88/184
s off
f 69/75/185 72/78/186 84/90/187 83/89/188
s 2
f 72/78/165 75/81/171 85/91/189 84/90/190
s 8
f 108/114/173 107/113/172 109/115/191 110/116/192
s 4
f 76/82/174 69/75/164 83/89/193 86/92/194
s 9
f 138/144/176 137/143/175 139/145/195 140/146/196
s 2
f 78/84/178 79/85/177 89/95/197 88/94/198
s 4
f 80/86/180 77/83/179 87/93/199 90/96/200
s 2
f 79/85/177 81/87/181 91/97/201 89/95/197
s 1
f 100/106/183 99/105/182 101/107/202 102/108/203
s 4
f 82/88/184 80/86/180 90/96/200 92/98/204
f 69/75/164 70/76/163 94/100/205 93/99/206
s 2
f 71/77/166 72/78/165 96/102/207 95/101/208
s off
f 72/78/209 69/75/210 93/99/211 96/102/212
s 4
f 70/76/163 73/79/167 97/103/213 94/100/205
s 2
f 74/80/170 71/77/166 95/101/208 98/104/214
s 4
f 73/79/167 82/88/184 99/105/215 97/103/213
s 2
f 81/87/181 74/80/170 98/104/214 100/106/216
s 4
f 82/88/184 92/98/204 101/107/217 99/105/215
s 7
f 92/98/169 91/97/168 102/108/218 101/107/219
s 2
f 91/97/201 81/87/181 100/106/216 102/108/220
s 10
f 66/71/154 65/72/153 103/110/221 104/109/222
s 4
f 65/72/156 67/73/155 105/111/223 103/110/224
s 2
f 68/74/162 66/71/161 104/109/225 106/112/226
s 4
f 67/73/155 76/82/174 107/113/227 105/111/223
s 2
f 75/81/171 68/74/162 106/112/226 108/114/228
s 4
f 76/82/174 86/92/194 109/115/229 107/113/227
s 11
f 86/92/160 85/91/159 110/116/230 109/115/231
s 2
f 85/91/189 75/81/171 108/114/228 110/116/232
s off
f 3/3/233 1/1/234 111/118/235 112/117/236
s 4
f 1/1/16 17/23/46 113/119/237 111/118/238
s 2
f 20/26/51 3/3/5 112/117/239 114/120/240
s 4
f 17/23/46 21/27/58 115/121/241 113/119/237
s 2
f 24/30/61 20/26/51 114/120/240 116/122/242
s 4
f 21/27/58 25/31/66 117/123/243 115/121/241
s 2
f 28/34/69 24/30/61 116/122/242 118/124/244
s 4
f 25/31/66 29/35/74 119/125/245 117/123/243
s 2
f 32/38/77 28/34/69 118/124/244 120/126/246
s 4
f 29/35/74 33/39/82 121/127/247 119/125/245
s 2
f 36/42/85 32/38/77 120/126/246 122/128/248
s 4
f 33/39/82 37/43/90 123/129/249 121/127/247
s 2
f 40/46/93 36/42/85 122/128/250 124/130/251
s 4
f 37/43/90 41/47/98 125/131/252 123/129/249
s 2
f 44/50/101 40/46/93 124/130/251 126/132/253
s 4
f 41/47/98 45/51/106 127/133/254 125/131/252
s 2
f 48/54/109 44/50/101 126/132/253 128/134/255
s 4
f 45/51/106 49/55/114 129/135/256 127/133/254
s 2
f 52/58/117 48/54/109 128/134/255 130/136/257
s 4
f 49/55/114 53/59/122 131/137/258 129/135/256
s off
f 53/59/259 56/62/260 132/138/261 131/137/262
s 2
f 56/62/125 52/58/117 130/136/257 132/138/263
s off
f 54/60/264 55/61/265 134/140/266 133/139/267
f 55/61/268 62/68/269 135/141/270 134/140/271
f 61/67/272 54/60/273 133/139/274 136/142/275
f 62/68/276 78/84/277 137/143/278 135/141/279
f 77/83/280 61/67/281 136/142/282 138/144/283
f 78/84/284 88/94/285 139/145/286 137/143/287
f 88/94/288 87/93/289 140/146/290 139/145/291
f 87/93/292 77/83/293 138/144/294 140/146/295
